<svg xmlns="http://www.w3.org/2000/svg" viewBox="0 0 1001.71 984.75"><defs><style>.cls-1{fill:#fff;}</style></defs><g id="Layer_2" data-name="Layer 2"><g id="Layer_1-2" data-name="Layer 1"><path class="cls-1" d="M962.92,420.79C896.1,367.15,812.68,275.18,796.2,223.85s-40.72-70.16-132.86-138c0,0,36.56-42.6,16.51-85.8,0,0,.25,32.07-78.81,53.39C576.53,60,551.21,78.23,531.55,95.32c0,0-39.33,1-89.93,16.82,30,20,38.67,51.16,38.67,51.16-73.53-78-198.12-9.52-366.7,23.51,0,0,67,17.79,132.7,2-142,53.81-157.73,183.81-58.65,273.75C282.92,549,448.75,628.93,465.77,808.75c39.6-82.55-38.73-170.77-34-249,3.57-58.95,38.85-76.25,92.55-98.29,0,0-19.7-44.94-3.75-73.21,0,0,21.73,99.56,162.85,103.12s133.21,46.7,145.31,73.94c18.69,42.06,90.6,28.2,102.8-7.6,5.05-14.84,28.21-5.71,36.61-23.25,4.3-9,1.56-18.22,11.9-29.64C1007.78,474.22,1015.5,463,962.92,420.79Z"/><path class="cls-1" d="M125.27,248.76S-17.49,275.37,1.79,412.54c0,0,1.58-39.91,31.38-73.46,0,0-34.18,120,92,221.05,227.26,182,242.46,287.11,217.25,424.62,0,0,105.41-111.54,58.74-245.78C358.06,615,204,555.49,131.91,461.06,90.26,406.54,65.75,323.66,125.27,248.76Z"/></g></g></svg>